M48
;DRILL file {KiCad (2017-02-06 revision 13395d34d)-master} date Thu Mar  9 15:05:45 2017
;FORMAT={-:-/ absolute / metric / decimal}
FMAT,2
METRIC,TZ
T1C0.400
T2C1.000
T3C1.200
%
G90
G05
M71
T1
X118.2Y-84.1
X119.3Y-88.6
X119.3Y-90.6
X120.015Y-89.66
X120.7Y-88.6
X120.7Y-90.6
X124.3Y-84.1
T2
X102.365Y-71.81
X102.365Y-74.35
X104.905Y-71.81
X104.905Y-74.35
X107.445Y-71.81
X107.445Y-74.35
X109.985Y-71.81
X109.985Y-74.35
X112.525Y-71.81
X112.525Y-74.35
X115.065Y-71.81
X115.065Y-74.35
X117.605Y-71.81
X117.605Y-74.35
X120.145Y-71.81
X120.145Y-74.35
X122.685Y-71.81
X122.685Y-74.35
X125.225Y-71.81
X125.225Y-74.35
X127.765Y-71.81
X127.765Y-74.35
X130.305Y-71.81
X130.305Y-74.35
X132.845Y-71.81
X132.845Y-74.35
X135.385Y-71.81
X135.385Y-74.35
X137.925Y-71.81
X137.925Y-74.35
X140.465Y-71.81
X140.465Y-74.35
X143.005Y-71.81
X143.005Y-74.35
X145.545Y-71.81
X145.545Y-74.35
X148.085Y-71.81
X148.085Y-74.35
X150.625Y-71.81
X150.625Y-74.35
T3
X102.Y-59.19
X102.Y-63.
X151.Y-59.
X151.Y-62.81
T2
X122.3Y-61.4G85X122.3Y-62.6
G05
X127.Y-61.4G85X127.Y-62.6
G05
X131.7Y-61.4G85X131.7Y-62.6
G05
T0
M30
