G04 #@! TF.GenerationSoftware,KiCad,Pcbnew,(2017-02-06 revision 13395d34d)-master*
G04 #@! TF.CreationDate,2017-03-09T15:05:37-03:00*
G04 #@! TF.ProjectId,beast-phat,62656173742D706861742E6B69636164,rev?*
G04 #@! TF.FileFunction,Copper,L2,Bot,Signal*
G04 #@! TF.FilePolarity,Positive*
%FSLAX46Y46*%
G04 Gerber Fmt 4.6, Leading zero omitted, Abs format (unit mm)*
G04 Created by KiCad (PCBNEW (2017-02-06 revision 13395d34d)-master) date Thu Mar  9 15:05:37 2017*
%MOMM*%
%LPD*%
G01*
G04 APERTURE LIST*
%ADD10C,0.100000*%
%ADD11R,3.600000X1.800000*%
%ADD12O,3.600000X1.800000*%
%ADD13O,1.800000X3.000000*%
%ADD14O,1.700000X1.700000*%
%ADD15R,1.700000X1.700000*%
%ADD16C,0.800000*%
%ADD17C,0.700000*%
%ADD18C,3.600000*%
%ADD19C,0.254000*%
G04 APERTURE END LIST*
D10*
D11*
X102000000Y-63000000D03*
D12*
X102000000Y-59190000D03*
X151000000Y-62810000D03*
D11*
X151000000Y-59000000D03*
D13*
X131700000Y-62000000D03*
X127000000Y-62000000D03*
X122300000Y-62000000D03*
D14*
X150625000Y-71810000D03*
X150625000Y-74350000D03*
X148085000Y-71810000D03*
X148085000Y-74350000D03*
X145545000Y-71810000D03*
X145545000Y-74350000D03*
X143005000Y-71810000D03*
X143005000Y-74350000D03*
X140465000Y-71810000D03*
X140465000Y-74350000D03*
X137925000Y-71810000D03*
X137925000Y-74350000D03*
X135385000Y-71810000D03*
X135385000Y-74350000D03*
X132845000Y-71810000D03*
X132845000Y-74350000D03*
X130305000Y-71810000D03*
X130305000Y-74350000D03*
X127765000Y-71810000D03*
X127765000Y-74350000D03*
X125225000Y-71810000D03*
X125225000Y-74350000D03*
X122685000Y-71810000D03*
X122685000Y-74350000D03*
X120145000Y-71810000D03*
X120145000Y-74350000D03*
X117605000Y-71810000D03*
X117605000Y-74350000D03*
X115065000Y-71810000D03*
X115065000Y-74350000D03*
X112525000Y-71810000D03*
X112525000Y-74350000D03*
X109985000Y-71810000D03*
X109985000Y-74350000D03*
X107445000Y-71810000D03*
X107445000Y-74350000D03*
X104905000Y-71810000D03*
X104905000Y-74350000D03*
X102365000Y-71810000D03*
D15*
X102365000Y-74350000D03*
D16*
X120015000Y-89660000D03*
X119300000Y-88600000D03*
X120700000Y-88600000D03*
X119300000Y-90600000D03*
X120700000Y-90600000D03*
X124300000Y-84100000D03*
X118200000Y-84100000D03*
D17*
X118200000Y-84100000D02*
X124300000Y-84100000D01*
D18*
X102000000Y-59190000D02*
X102010000Y-59190000D01*
X102010000Y-59190000D02*
X103100000Y-58100000D01*
X131700000Y-60300000D02*
X131700000Y-62000000D01*
X129500000Y-58100000D02*
X131700000Y-60300000D01*
X103100000Y-58100000D02*
X129500000Y-58100000D01*
X131700000Y-62000000D02*
X134700000Y-59000000D01*
X134700000Y-59000000D02*
X151000000Y-59000000D01*
D19*
G36*
X100308332Y-57448058D02*
X100278195Y-57468195D01*
X99750353Y-58258166D01*
X99702065Y-58500925D01*
X99634141Y-58602581D01*
X99517296Y-59190000D01*
X99634141Y-59777419D01*
X99702065Y-59879075D01*
X99750353Y-60121834D01*
X100278195Y-60911805D01*
X101068166Y-61439647D01*
X101195624Y-61465000D01*
X100073690Y-61465000D01*
X99840301Y-61561673D01*
X99661673Y-61740302D01*
X99565000Y-61973691D01*
X99565000Y-62714250D01*
X99723750Y-62873000D01*
X101873000Y-62873000D01*
X101873000Y-62853000D01*
X102127000Y-62853000D01*
X102127000Y-62873000D01*
X104276250Y-62873000D01*
X104435000Y-62714250D01*
X104435000Y-61973691D01*
X104338327Y-61740302D01*
X104159699Y-61561673D01*
X103926310Y-61465000D01*
X102814377Y-61465000D01*
X102941835Y-61439647D01*
X103731805Y-60911805D01*
X104108610Y-60535000D01*
X121039371Y-60535000D01*
X120881845Y-60770754D01*
X120765000Y-61358173D01*
X120765000Y-62641827D01*
X120881845Y-63229246D01*
X121214591Y-63727236D01*
X121712581Y-64059982D01*
X122300000Y-64176827D01*
X122887419Y-64059982D01*
X123385409Y-63727236D01*
X123718155Y-63229246D01*
X123835000Y-62641827D01*
X123835000Y-61358173D01*
X123718155Y-60770754D01*
X123560629Y-60535000D01*
X125739371Y-60535000D01*
X125581845Y-60770754D01*
X125465000Y-61358173D01*
X125465000Y-62641827D01*
X125581845Y-63229246D01*
X125914591Y-63727236D01*
X126412581Y-64059982D01*
X127000000Y-64176827D01*
X127587419Y-64059982D01*
X128085409Y-63727236D01*
X128418155Y-63229246D01*
X128535000Y-62641827D01*
X128535000Y-61358173D01*
X128418155Y-60770754D01*
X128260629Y-60535000D01*
X128491390Y-60535000D01*
X129265000Y-61308610D01*
X129265000Y-62000000D01*
X129450353Y-62931835D01*
X129978195Y-63721805D01*
X130768165Y-64249647D01*
X131700000Y-64435000D01*
X132631835Y-64249647D01*
X133421805Y-63721805D01*
X133968870Y-63174740D01*
X148608964Y-63174740D01*
X148633244Y-63280086D01*
X148924788Y-63805606D01*
X149395248Y-64179554D01*
X149973000Y-64345000D01*
X150873000Y-64345000D01*
X150873000Y-62937000D01*
X151127000Y-62937000D01*
X151127000Y-64345000D01*
X152027000Y-64345000D01*
X152604752Y-64179554D01*
X153075212Y-63805606D01*
X153366756Y-63280086D01*
X153391036Y-63174740D01*
X153270378Y-62937000D01*
X151127000Y-62937000D01*
X150873000Y-62937000D01*
X148729622Y-62937000D01*
X148608964Y-63174740D01*
X133968870Y-63174740D01*
X135708610Y-61435000D01*
X149414266Y-61435000D01*
X149395248Y-61440446D01*
X148924788Y-61814394D01*
X148633244Y-62339914D01*
X148608964Y-62445260D01*
X148729622Y-62683000D01*
X150873000Y-62683000D01*
X150873000Y-62663000D01*
X151127000Y-62663000D01*
X151127000Y-62683000D01*
X153270378Y-62683000D01*
X153391036Y-62445260D01*
X153366756Y-62339914D01*
X153075212Y-61814394D01*
X152604752Y-61440446D01*
X152027000Y-61275000D01*
X151804376Y-61275000D01*
X151931834Y-61249647D01*
X152721805Y-60721805D01*
X152844184Y-60538651D01*
X153047765Y-60498157D01*
X153257809Y-60357809D01*
X153398157Y-60147765D01*
X153447440Y-59900000D01*
X153447440Y-58100000D01*
X153398157Y-57852235D01*
X153257809Y-57642191D01*
X153047765Y-57501843D01*
X152844184Y-57461349D01*
X152721805Y-57278195D01*
X152495526Y-57127000D01*
X156947394Y-57127000D01*
X157873000Y-58052606D01*
X157873000Y-121947394D01*
X155947394Y-123873000D01*
X97052606Y-123873000D01*
X95127000Y-121947394D01*
X95127000Y-108052606D01*
X96052606Y-107127000D01*
X99000000Y-107127000D01*
X99048601Y-107117333D01*
X99089803Y-107089803D01*
X99974606Y-106205000D01*
X137310000Y-106205000D01*
X137310000Y-121205000D01*
X137323162Y-121271170D01*
X137323162Y-121338636D01*
X137399282Y-121721319D01*
X137469152Y-121890000D01*
X137501563Y-121968248D01*
X137718336Y-122292672D01*
X137907328Y-122481664D01*
X138231751Y-122698437D01*
X138334032Y-122740803D01*
X138478681Y-122800718D01*
X138861364Y-122876838D01*
X139128636Y-122876838D01*
X139511319Y-122800718D01*
X139758248Y-122698437D01*
X139758249Y-122698436D01*
X140082672Y-122481664D01*
X140271664Y-122292672D01*
X140488437Y-121968249D01*
X140530803Y-121865968D01*
X140590718Y-121721319D01*
X140666838Y-121338636D01*
X140666838Y-121271170D01*
X140680000Y-121205000D01*
X140680000Y-106205000D01*
X140666838Y-106138830D01*
X140666838Y-106071364D01*
X140590718Y-105688681D01*
X140510594Y-105495243D01*
X140488437Y-105441751D01*
X140271664Y-105117328D01*
X140082672Y-104928336D01*
X139758248Y-104711563D01*
X139742403Y-104705000D01*
X139511319Y-104609282D01*
X139128636Y-104533162D01*
X138995000Y-104533162D01*
X138478681Y-104609282D01*
X138334032Y-104669197D01*
X138231751Y-104711563D01*
X137907328Y-104928336D01*
X137718336Y-105117328D01*
X137501564Y-105441751D01*
X137501563Y-105441752D01*
X137399282Y-105688681D01*
X137323162Y-106071364D01*
X137323162Y-106138830D01*
X137310000Y-106205000D01*
X99974606Y-106205000D01*
X100089803Y-106089803D01*
X100117333Y-106048601D01*
X100127000Y-106000000D01*
X100127000Y-89000000D01*
X100117333Y-88951399D01*
X100089803Y-88910197D01*
X99089803Y-87910197D01*
X99048601Y-87882667D01*
X99000000Y-87873000D01*
X96052606Y-87873000D01*
X95127000Y-86947394D01*
X95127000Y-84304971D01*
X117164821Y-84304971D01*
X117322058Y-84685515D01*
X117612954Y-84976919D01*
X117993223Y-85134820D01*
X118404971Y-85135179D01*
X118526414Y-85085000D01*
X123973243Y-85085000D01*
X124093223Y-85134820D01*
X124504971Y-85135179D01*
X124885515Y-84977942D01*
X125176919Y-84687046D01*
X125334820Y-84306777D01*
X125335179Y-83895029D01*
X125177942Y-83514485D01*
X124887046Y-83223081D01*
X124506777Y-83065180D01*
X124095029Y-83064821D01*
X123973586Y-83115000D01*
X118526757Y-83115000D01*
X118406777Y-83065180D01*
X117995029Y-83064821D01*
X117614485Y-83222058D01*
X117323081Y-83512954D01*
X117165180Y-83893223D01*
X117164821Y-84304971D01*
X95127000Y-84304971D01*
X95127000Y-73500000D01*
X100867560Y-73500000D01*
X100867560Y-75200000D01*
X100916843Y-75447765D01*
X101057191Y-75657809D01*
X101267235Y-75798157D01*
X101515000Y-75847440D01*
X103215000Y-75847440D01*
X103462765Y-75798157D01*
X103672809Y-75657809D01*
X103813157Y-75447765D01*
X103825597Y-75385223D01*
X103854946Y-75429147D01*
X104336715Y-75751054D01*
X104905000Y-75864093D01*
X105473285Y-75751054D01*
X105955054Y-75429147D01*
X106175000Y-75099974D01*
X106394946Y-75429147D01*
X106876715Y-75751054D01*
X107445000Y-75864093D01*
X108013285Y-75751054D01*
X108495054Y-75429147D01*
X108715000Y-75099974D01*
X108934946Y-75429147D01*
X109416715Y-75751054D01*
X109985000Y-75864093D01*
X110553285Y-75751054D01*
X111035054Y-75429147D01*
X111262702Y-75088447D01*
X111329817Y-75231358D01*
X111758076Y-75621645D01*
X112168110Y-75791476D01*
X112398000Y-75670155D01*
X112398000Y-74477000D01*
X112378000Y-74477000D01*
X112378000Y-74223000D01*
X112398000Y-74223000D01*
X112398000Y-74203000D01*
X112652000Y-74203000D01*
X112652000Y-74223000D01*
X112672000Y-74223000D01*
X112672000Y-74477000D01*
X112652000Y-74477000D01*
X112652000Y-75670155D01*
X112881890Y-75791476D01*
X113291924Y-75621645D01*
X113720183Y-75231358D01*
X113787298Y-75088447D01*
X114014946Y-75429147D01*
X114496715Y-75751054D01*
X115065000Y-75864093D01*
X115633285Y-75751054D01*
X116115054Y-75429147D01*
X116335000Y-75099974D01*
X116554946Y-75429147D01*
X117036715Y-75751054D01*
X117605000Y-75864093D01*
X118173285Y-75751054D01*
X118655054Y-75429147D01*
X118875000Y-75099974D01*
X119094946Y-75429147D01*
X119576715Y-75751054D01*
X120145000Y-75864093D01*
X120713285Y-75751054D01*
X121195054Y-75429147D01*
X121415000Y-75099974D01*
X121634946Y-75429147D01*
X122116715Y-75751054D01*
X122685000Y-75864093D01*
X123253285Y-75751054D01*
X123735054Y-75429147D01*
X123955000Y-75099974D01*
X124174946Y-75429147D01*
X124656715Y-75751054D01*
X125225000Y-75864093D01*
X125793285Y-75751054D01*
X126275054Y-75429147D01*
X126495000Y-75099974D01*
X126714946Y-75429147D01*
X127196715Y-75751054D01*
X127765000Y-75864093D01*
X128333285Y-75751054D01*
X128815054Y-75429147D01*
X129035000Y-75099974D01*
X129254946Y-75429147D01*
X129736715Y-75751054D01*
X130305000Y-75864093D01*
X130873285Y-75751054D01*
X131355054Y-75429147D01*
X131582702Y-75088447D01*
X131649817Y-75231358D01*
X132078076Y-75621645D01*
X132488110Y-75791476D01*
X132718000Y-75670155D01*
X132718000Y-74477000D01*
X132698000Y-74477000D01*
X132698000Y-74223000D01*
X132718000Y-74223000D01*
X132718000Y-74203000D01*
X132972000Y-74203000D01*
X132972000Y-74223000D01*
X132992000Y-74223000D01*
X132992000Y-74477000D01*
X132972000Y-74477000D01*
X132972000Y-75670155D01*
X133201890Y-75791476D01*
X133611924Y-75621645D01*
X134040183Y-75231358D01*
X134107298Y-75088447D01*
X134334946Y-75429147D01*
X134816715Y-75751054D01*
X135385000Y-75864093D01*
X135953285Y-75751054D01*
X136435054Y-75429147D01*
X136655000Y-75099974D01*
X136874946Y-75429147D01*
X137356715Y-75751054D01*
X137925000Y-75864093D01*
X138493285Y-75751054D01*
X138975054Y-75429147D01*
X139195000Y-75099974D01*
X139414946Y-75429147D01*
X139896715Y-75751054D01*
X140465000Y-75864093D01*
X141033285Y-75751054D01*
X141515054Y-75429147D01*
X141735000Y-75099974D01*
X141954946Y-75429147D01*
X142436715Y-75751054D01*
X143005000Y-75864093D01*
X143573285Y-75751054D01*
X144055054Y-75429147D01*
X144275000Y-75099974D01*
X144494946Y-75429147D01*
X144976715Y-75751054D01*
X145545000Y-75864093D01*
X146113285Y-75751054D01*
X146595054Y-75429147D01*
X146815000Y-75099974D01*
X147034946Y-75429147D01*
X147516715Y-75751054D01*
X148085000Y-75864093D01*
X148653285Y-75751054D01*
X149135054Y-75429147D01*
X149362702Y-75088447D01*
X149429817Y-75231358D01*
X149858076Y-75621645D01*
X150268110Y-75791476D01*
X150498000Y-75670155D01*
X150498000Y-74477000D01*
X150752000Y-74477000D01*
X150752000Y-75670155D01*
X150981890Y-75791476D01*
X151391924Y-75621645D01*
X151820183Y-75231358D01*
X152066486Y-74706892D01*
X151945819Y-74477000D01*
X150752000Y-74477000D01*
X150498000Y-74477000D01*
X150478000Y-74477000D01*
X150478000Y-74223000D01*
X150498000Y-74223000D01*
X150498000Y-74203000D01*
X150752000Y-74203000D01*
X150752000Y-74223000D01*
X151945819Y-74223000D01*
X152066486Y-73993108D01*
X151820183Y-73468642D01*
X151391924Y-73078355D01*
X151391899Y-73078345D01*
X151675054Y-72889147D01*
X151996961Y-72407378D01*
X152110000Y-71839093D01*
X152110000Y-71780907D01*
X151996961Y-71212622D01*
X151675054Y-70730853D01*
X151193285Y-70408946D01*
X150625000Y-70295907D01*
X150056715Y-70408946D01*
X149574946Y-70730853D01*
X149355000Y-71060026D01*
X149135054Y-70730853D01*
X148653285Y-70408946D01*
X148085000Y-70295907D01*
X147516715Y-70408946D01*
X147034946Y-70730853D01*
X146815000Y-71060026D01*
X146595054Y-70730853D01*
X146113285Y-70408946D01*
X145545000Y-70295907D01*
X144976715Y-70408946D01*
X144494946Y-70730853D01*
X144267298Y-71071553D01*
X144200183Y-70928642D01*
X143771924Y-70538355D01*
X143361890Y-70368524D01*
X143132000Y-70489845D01*
X143132000Y-71683000D01*
X143152000Y-71683000D01*
X143152000Y-71937000D01*
X143132000Y-71937000D01*
X143132000Y-71957000D01*
X142878000Y-71957000D01*
X142878000Y-71937000D01*
X142858000Y-71937000D01*
X142858000Y-71683000D01*
X142878000Y-71683000D01*
X142878000Y-70489845D01*
X142648110Y-70368524D01*
X142238076Y-70538355D01*
X141809817Y-70928642D01*
X141742702Y-71071553D01*
X141515054Y-70730853D01*
X141033285Y-70408946D01*
X140465000Y-70295907D01*
X139896715Y-70408946D01*
X139414946Y-70730853D01*
X139187298Y-71071553D01*
X139120183Y-70928642D01*
X138691924Y-70538355D01*
X138281890Y-70368524D01*
X138052000Y-70489845D01*
X138052000Y-71683000D01*
X138072000Y-71683000D01*
X138072000Y-71937000D01*
X138052000Y-71937000D01*
X138052000Y-71957000D01*
X137798000Y-71957000D01*
X137798000Y-71937000D01*
X137778000Y-71937000D01*
X137778000Y-71683000D01*
X137798000Y-71683000D01*
X137798000Y-70489845D01*
X137568110Y-70368524D01*
X137158076Y-70538355D01*
X136729817Y-70928642D01*
X136662702Y-71071553D01*
X136435054Y-70730853D01*
X135953285Y-70408946D01*
X135385000Y-70295907D01*
X134816715Y-70408946D01*
X134334946Y-70730853D01*
X134115000Y-71060026D01*
X133895054Y-70730853D01*
X133413285Y-70408946D01*
X132845000Y-70295907D01*
X132276715Y-70408946D01*
X131794946Y-70730853D01*
X131575000Y-71060026D01*
X131355054Y-70730853D01*
X130873285Y-70408946D01*
X130305000Y-70295907D01*
X129736715Y-70408946D01*
X129254946Y-70730853D01*
X129035000Y-71060026D01*
X128815054Y-70730853D01*
X128333285Y-70408946D01*
X127765000Y-70295907D01*
X127196715Y-70408946D01*
X126714946Y-70730853D01*
X126487298Y-71071553D01*
X126420183Y-70928642D01*
X125991924Y-70538355D01*
X125581890Y-70368524D01*
X125352000Y-70489845D01*
X125352000Y-71683000D01*
X125372000Y-71683000D01*
X125372000Y-71937000D01*
X125352000Y-71937000D01*
X125352000Y-71957000D01*
X125098000Y-71957000D01*
X125098000Y-71937000D01*
X125078000Y-71937000D01*
X125078000Y-71683000D01*
X125098000Y-71683000D01*
X125098000Y-70489845D01*
X124868110Y-70368524D01*
X124458076Y-70538355D01*
X124029817Y-70928642D01*
X123962702Y-71071553D01*
X123735054Y-70730853D01*
X123253285Y-70408946D01*
X122685000Y-70295907D01*
X122116715Y-70408946D01*
X121634946Y-70730853D01*
X121415000Y-71060026D01*
X121195054Y-70730853D01*
X120713285Y-70408946D01*
X120145000Y-70295907D01*
X119576715Y-70408946D01*
X119094946Y-70730853D01*
X118867298Y-71071553D01*
X118800183Y-70928642D01*
X118371924Y-70538355D01*
X117961890Y-70368524D01*
X117732000Y-70489845D01*
X117732000Y-71683000D01*
X117752000Y-71683000D01*
X117752000Y-71937000D01*
X117732000Y-71937000D01*
X117732000Y-71957000D01*
X117478000Y-71957000D01*
X117478000Y-71937000D01*
X117458000Y-71937000D01*
X117458000Y-71683000D01*
X117478000Y-71683000D01*
X117478000Y-70489845D01*
X117248110Y-70368524D01*
X116838076Y-70538355D01*
X116409817Y-70928642D01*
X116342702Y-71071553D01*
X116115054Y-70730853D01*
X115633285Y-70408946D01*
X115065000Y-70295907D01*
X114496715Y-70408946D01*
X114014946Y-70730853D01*
X113795000Y-71060026D01*
X113575054Y-70730853D01*
X113093285Y-70408946D01*
X112525000Y-70295907D01*
X111956715Y-70408946D01*
X111474946Y-70730853D01*
X111255000Y-71060026D01*
X111035054Y-70730853D01*
X110553285Y-70408946D01*
X109985000Y-70295907D01*
X109416715Y-70408946D01*
X108934946Y-70730853D01*
X108707298Y-71071553D01*
X108640183Y-70928642D01*
X108211924Y-70538355D01*
X107801890Y-70368524D01*
X107572000Y-70489845D01*
X107572000Y-71683000D01*
X107592000Y-71683000D01*
X107592000Y-71937000D01*
X107572000Y-71937000D01*
X107572000Y-71957000D01*
X107318000Y-71957000D01*
X107318000Y-71937000D01*
X107298000Y-71937000D01*
X107298000Y-71683000D01*
X107318000Y-71683000D01*
X107318000Y-70489845D01*
X107088110Y-70368524D01*
X106678076Y-70538355D01*
X106249817Y-70928642D01*
X106182702Y-71071553D01*
X105955054Y-70730853D01*
X105473285Y-70408946D01*
X104905000Y-70295907D01*
X104336715Y-70408946D01*
X103854946Y-70730853D01*
X103635000Y-71060026D01*
X103415054Y-70730853D01*
X102933285Y-70408946D01*
X102365000Y-70295907D01*
X101796715Y-70408946D01*
X101314946Y-70730853D01*
X100993039Y-71212622D01*
X100880000Y-71780907D01*
X100880000Y-71839093D01*
X100993039Y-72407378D01*
X101314946Y-72889147D01*
X101318643Y-72891617D01*
X101267235Y-72901843D01*
X101057191Y-73042191D01*
X100916843Y-73252235D01*
X100867560Y-73500000D01*
X95127000Y-73500000D01*
X95127000Y-63285750D01*
X99565000Y-63285750D01*
X99565000Y-64026309D01*
X99661673Y-64259698D01*
X99840301Y-64438327D01*
X100073690Y-64535000D01*
X101714250Y-64535000D01*
X101873000Y-64376250D01*
X101873000Y-63127000D01*
X102127000Y-63127000D01*
X102127000Y-64376250D01*
X102285750Y-64535000D01*
X103926310Y-64535000D01*
X104159699Y-64438327D01*
X104338327Y-64259698D01*
X104435000Y-64026309D01*
X104435000Y-63285750D01*
X104276250Y-63127000D01*
X102127000Y-63127000D01*
X101873000Y-63127000D01*
X99723750Y-63127000D01*
X99565000Y-63285750D01*
X95127000Y-63285750D01*
X95127000Y-58052606D01*
X96052606Y-57127000D01*
X100629390Y-57127000D01*
X100308332Y-57448058D01*
X100308332Y-57448058D01*
G37*
X100308332Y-57448058D02*
X100278195Y-57468195D01*
X99750353Y-58258166D01*
X99702065Y-58500925D01*
X99634141Y-58602581D01*
X99517296Y-59190000D01*
X99634141Y-59777419D01*
X99702065Y-59879075D01*
X99750353Y-60121834D01*
X100278195Y-60911805D01*
X101068166Y-61439647D01*
X101195624Y-61465000D01*
X100073690Y-61465000D01*
X99840301Y-61561673D01*
X99661673Y-61740302D01*
X99565000Y-61973691D01*
X99565000Y-62714250D01*
X99723750Y-62873000D01*
X101873000Y-62873000D01*
X101873000Y-62853000D01*
X102127000Y-62853000D01*
X102127000Y-62873000D01*
X104276250Y-62873000D01*
X104435000Y-62714250D01*
X104435000Y-61973691D01*
X104338327Y-61740302D01*
X104159699Y-61561673D01*
X103926310Y-61465000D01*
X102814377Y-61465000D01*
X102941835Y-61439647D01*
X103731805Y-60911805D01*
X104108610Y-60535000D01*
X121039371Y-60535000D01*
X120881845Y-60770754D01*
X120765000Y-61358173D01*
X120765000Y-62641827D01*
X120881845Y-63229246D01*
X121214591Y-63727236D01*
X121712581Y-64059982D01*
X122300000Y-64176827D01*
X122887419Y-64059982D01*
X123385409Y-63727236D01*
X123718155Y-63229246D01*
X123835000Y-62641827D01*
X123835000Y-61358173D01*
X123718155Y-60770754D01*
X123560629Y-60535000D01*
X125739371Y-60535000D01*
X125581845Y-60770754D01*
X125465000Y-61358173D01*
X125465000Y-62641827D01*
X125581845Y-63229246D01*
X125914591Y-63727236D01*
X126412581Y-64059982D01*
X127000000Y-64176827D01*
X127587419Y-64059982D01*
X128085409Y-63727236D01*
X128418155Y-63229246D01*
X128535000Y-62641827D01*
X128535000Y-61358173D01*
X128418155Y-60770754D01*
X128260629Y-60535000D01*
X128491390Y-60535000D01*
X129265000Y-61308610D01*
X129265000Y-62000000D01*
X129450353Y-62931835D01*
X129978195Y-63721805D01*
X130768165Y-64249647D01*
X131700000Y-64435000D01*
X132631835Y-64249647D01*
X133421805Y-63721805D01*
X133968870Y-63174740D01*
X148608964Y-63174740D01*
X148633244Y-63280086D01*
X148924788Y-63805606D01*
X149395248Y-64179554D01*
X149973000Y-64345000D01*
X150873000Y-64345000D01*
X150873000Y-62937000D01*
X151127000Y-62937000D01*
X151127000Y-64345000D01*
X152027000Y-64345000D01*
X152604752Y-64179554D01*
X153075212Y-63805606D01*
X153366756Y-63280086D01*
X153391036Y-63174740D01*
X153270378Y-62937000D01*
X151127000Y-62937000D01*
X150873000Y-62937000D01*
X148729622Y-62937000D01*
X148608964Y-63174740D01*
X133968870Y-63174740D01*
X135708610Y-61435000D01*
X149414266Y-61435000D01*
X149395248Y-61440446D01*
X148924788Y-61814394D01*
X148633244Y-62339914D01*
X148608964Y-62445260D01*
X148729622Y-62683000D01*
X150873000Y-62683000D01*
X150873000Y-62663000D01*
X151127000Y-62663000D01*
X151127000Y-62683000D01*
X153270378Y-62683000D01*
X153391036Y-62445260D01*
X153366756Y-62339914D01*
X153075212Y-61814394D01*
X152604752Y-61440446D01*
X152027000Y-61275000D01*
X151804376Y-61275000D01*
X151931834Y-61249647D01*
X152721805Y-60721805D01*
X152844184Y-60538651D01*
X153047765Y-60498157D01*
X153257809Y-60357809D01*
X153398157Y-60147765D01*
X153447440Y-59900000D01*
X153447440Y-58100000D01*
X153398157Y-57852235D01*
X153257809Y-57642191D01*
X153047765Y-57501843D01*
X152844184Y-57461349D01*
X152721805Y-57278195D01*
X152495526Y-57127000D01*
X156947394Y-57127000D01*
X157873000Y-58052606D01*
X157873000Y-121947394D01*
X155947394Y-123873000D01*
X97052606Y-123873000D01*
X95127000Y-121947394D01*
X95127000Y-108052606D01*
X96052606Y-107127000D01*
X99000000Y-107127000D01*
X99048601Y-107117333D01*
X99089803Y-107089803D01*
X99974606Y-106205000D01*
X137310000Y-106205000D01*
X137310000Y-121205000D01*
X137323162Y-121271170D01*
X137323162Y-121338636D01*
X137399282Y-121721319D01*
X137469152Y-121890000D01*
X137501563Y-121968248D01*
X137718336Y-122292672D01*
X137907328Y-122481664D01*
X138231751Y-122698437D01*
X138334032Y-122740803D01*
X138478681Y-122800718D01*
X138861364Y-122876838D01*
X139128636Y-122876838D01*
X139511319Y-122800718D01*
X139758248Y-122698437D01*
X139758249Y-122698436D01*
X140082672Y-122481664D01*
X140271664Y-122292672D01*
X140488437Y-121968249D01*
X140530803Y-121865968D01*
X140590718Y-121721319D01*
X140666838Y-121338636D01*
X140666838Y-121271170D01*
X140680000Y-121205000D01*
X140680000Y-106205000D01*
X140666838Y-106138830D01*
X140666838Y-106071364D01*
X140590718Y-105688681D01*
X140510594Y-105495243D01*
X140488437Y-105441751D01*
X140271664Y-105117328D01*
X140082672Y-104928336D01*
X139758248Y-104711563D01*
X139742403Y-104705000D01*
X139511319Y-104609282D01*
X139128636Y-104533162D01*
X138995000Y-104533162D01*
X138478681Y-104609282D01*
X138334032Y-104669197D01*
X138231751Y-104711563D01*
X137907328Y-104928336D01*
X137718336Y-105117328D01*
X137501564Y-105441751D01*
X137501563Y-105441752D01*
X137399282Y-105688681D01*
X137323162Y-106071364D01*
X137323162Y-106138830D01*
X137310000Y-106205000D01*
X99974606Y-106205000D01*
X100089803Y-106089803D01*
X100117333Y-106048601D01*
X100127000Y-106000000D01*
X100127000Y-89000000D01*
X100117333Y-88951399D01*
X100089803Y-88910197D01*
X99089803Y-87910197D01*
X99048601Y-87882667D01*
X99000000Y-87873000D01*
X96052606Y-87873000D01*
X95127000Y-86947394D01*
X95127000Y-84304971D01*
X117164821Y-84304971D01*
X117322058Y-84685515D01*
X117612954Y-84976919D01*
X117993223Y-85134820D01*
X118404971Y-85135179D01*
X118526414Y-85085000D01*
X123973243Y-85085000D01*
X124093223Y-85134820D01*
X124504971Y-85135179D01*
X124885515Y-84977942D01*
X125176919Y-84687046D01*
X125334820Y-84306777D01*
X125335179Y-83895029D01*
X125177942Y-83514485D01*
X124887046Y-83223081D01*
X124506777Y-83065180D01*
X124095029Y-83064821D01*
X123973586Y-83115000D01*
X118526757Y-83115000D01*
X118406777Y-83065180D01*
X117995029Y-83064821D01*
X117614485Y-83222058D01*
X117323081Y-83512954D01*
X117165180Y-83893223D01*
X117164821Y-84304971D01*
X95127000Y-84304971D01*
X95127000Y-73500000D01*
X100867560Y-73500000D01*
X100867560Y-75200000D01*
X100916843Y-75447765D01*
X101057191Y-75657809D01*
X101267235Y-75798157D01*
X101515000Y-75847440D01*
X103215000Y-75847440D01*
X103462765Y-75798157D01*
X103672809Y-75657809D01*
X103813157Y-75447765D01*
X103825597Y-75385223D01*
X103854946Y-75429147D01*
X104336715Y-75751054D01*
X104905000Y-75864093D01*
X105473285Y-75751054D01*
X105955054Y-75429147D01*
X106175000Y-75099974D01*
X106394946Y-75429147D01*
X106876715Y-75751054D01*
X107445000Y-75864093D01*
X108013285Y-75751054D01*
X108495054Y-75429147D01*
X108715000Y-75099974D01*
X108934946Y-75429147D01*
X109416715Y-75751054D01*
X109985000Y-75864093D01*
X110553285Y-75751054D01*
X111035054Y-75429147D01*
X111262702Y-75088447D01*
X111329817Y-75231358D01*
X111758076Y-75621645D01*
X112168110Y-75791476D01*
X112398000Y-75670155D01*
X112398000Y-74477000D01*
X112378000Y-74477000D01*
X112378000Y-74223000D01*
X112398000Y-74223000D01*
X112398000Y-74203000D01*
X112652000Y-74203000D01*
X112652000Y-74223000D01*
X112672000Y-74223000D01*
X112672000Y-74477000D01*
X112652000Y-74477000D01*
X112652000Y-75670155D01*
X112881890Y-75791476D01*
X113291924Y-75621645D01*
X113720183Y-75231358D01*
X113787298Y-75088447D01*
X114014946Y-75429147D01*
X114496715Y-75751054D01*
X115065000Y-75864093D01*
X115633285Y-75751054D01*
X116115054Y-75429147D01*
X116335000Y-75099974D01*
X116554946Y-75429147D01*
X117036715Y-75751054D01*
X117605000Y-75864093D01*
X118173285Y-75751054D01*
X118655054Y-75429147D01*
X118875000Y-75099974D01*
X119094946Y-75429147D01*
X119576715Y-75751054D01*
X120145000Y-75864093D01*
X120713285Y-75751054D01*
X121195054Y-75429147D01*
X121415000Y-75099974D01*
X121634946Y-75429147D01*
X122116715Y-75751054D01*
X122685000Y-75864093D01*
X123253285Y-75751054D01*
X123735054Y-75429147D01*
X123955000Y-75099974D01*
X124174946Y-75429147D01*
X124656715Y-75751054D01*
X125225000Y-75864093D01*
X125793285Y-75751054D01*
X126275054Y-75429147D01*
X126495000Y-75099974D01*
X126714946Y-75429147D01*
X127196715Y-75751054D01*
X127765000Y-75864093D01*
X128333285Y-75751054D01*
X128815054Y-75429147D01*
X129035000Y-75099974D01*
X129254946Y-75429147D01*
X129736715Y-75751054D01*
X130305000Y-75864093D01*
X130873285Y-75751054D01*
X131355054Y-75429147D01*
X131582702Y-75088447D01*
X131649817Y-75231358D01*
X132078076Y-75621645D01*
X132488110Y-75791476D01*
X132718000Y-75670155D01*
X132718000Y-74477000D01*
X132698000Y-74477000D01*
X132698000Y-74223000D01*
X132718000Y-74223000D01*
X132718000Y-74203000D01*
X132972000Y-74203000D01*
X132972000Y-74223000D01*
X132992000Y-74223000D01*
X132992000Y-74477000D01*
X132972000Y-74477000D01*
X132972000Y-75670155D01*
X133201890Y-75791476D01*
X133611924Y-75621645D01*
X134040183Y-75231358D01*
X134107298Y-75088447D01*
X134334946Y-75429147D01*
X134816715Y-75751054D01*
X135385000Y-75864093D01*
X135953285Y-75751054D01*
X136435054Y-75429147D01*
X136655000Y-75099974D01*
X136874946Y-75429147D01*
X137356715Y-75751054D01*
X137925000Y-75864093D01*
X138493285Y-75751054D01*
X138975054Y-75429147D01*
X139195000Y-75099974D01*
X139414946Y-75429147D01*
X139896715Y-75751054D01*
X140465000Y-75864093D01*
X141033285Y-75751054D01*
X141515054Y-75429147D01*
X141735000Y-75099974D01*
X141954946Y-75429147D01*
X142436715Y-75751054D01*
X143005000Y-75864093D01*
X143573285Y-75751054D01*
X144055054Y-75429147D01*
X144275000Y-75099974D01*
X144494946Y-75429147D01*
X144976715Y-75751054D01*
X145545000Y-75864093D01*
X146113285Y-75751054D01*
X146595054Y-75429147D01*
X146815000Y-75099974D01*
X147034946Y-75429147D01*
X147516715Y-75751054D01*
X148085000Y-75864093D01*
X148653285Y-75751054D01*
X149135054Y-75429147D01*
X149362702Y-75088447D01*
X149429817Y-75231358D01*
X149858076Y-75621645D01*
X150268110Y-75791476D01*
X150498000Y-75670155D01*
X150498000Y-74477000D01*
X150752000Y-74477000D01*
X150752000Y-75670155D01*
X150981890Y-75791476D01*
X151391924Y-75621645D01*
X151820183Y-75231358D01*
X152066486Y-74706892D01*
X151945819Y-74477000D01*
X150752000Y-74477000D01*
X150498000Y-74477000D01*
X150478000Y-74477000D01*
X150478000Y-74223000D01*
X150498000Y-74223000D01*
X150498000Y-74203000D01*
X150752000Y-74203000D01*
X150752000Y-74223000D01*
X151945819Y-74223000D01*
X152066486Y-73993108D01*
X151820183Y-73468642D01*
X151391924Y-73078355D01*
X151391899Y-73078345D01*
X151675054Y-72889147D01*
X151996961Y-72407378D01*
X152110000Y-71839093D01*
X152110000Y-71780907D01*
X151996961Y-71212622D01*
X151675054Y-70730853D01*
X151193285Y-70408946D01*
X150625000Y-70295907D01*
X150056715Y-70408946D01*
X149574946Y-70730853D01*
X149355000Y-71060026D01*
X149135054Y-70730853D01*
X148653285Y-70408946D01*
X148085000Y-70295907D01*
X147516715Y-70408946D01*
X147034946Y-70730853D01*
X146815000Y-71060026D01*
X146595054Y-70730853D01*
X146113285Y-70408946D01*
X145545000Y-70295907D01*
X144976715Y-70408946D01*
X144494946Y-70730853D01*
X144267298Y-71071553D01*
X144200183Y-70928642D01*
X143771924Y-70538355D01*
X143361890Y-70368524D01*
X143132000Y-70489845D01*
X143132000Y-71683000D01*
X143152000Y-71683000D01*
X143152000Y-71937000D01*
X143132000Y-71937000D01*
X143132000Y-71957000D01*
X142878000Y-71957000D01*
X142878000Y-71937000D01*
X142858000Y-71937000D01*
X142858000Y-71683000D01*
X142878000Y-71683000D01*
X142878000Y-70489845D01*
X142648110Y-70368524D01*
X142238076Y-70538355D01*
X141809817Y-70928642D01*
X141742702Y-71071553D01*
X141515054Y-70730853D01*
X141033285Y-70408946D01*
X140465000Y-70295907D01*
X139896715Y-70408946D01*
X139414946Y-70730853D01*
X139187298Y-71071553D01*
X139120183Y-70928642D01*
X138691924Y-70538355D01*
X138281890Y-70368524D01*
X138052000Y-70489845D01*
X138052000Y-71683000D01*
X138072000Y-71683000D01*
X138072000Y-71937000D01*
X138052000Y-71937000D01*
X138052000Y-71957000D01*
X137798000Y-71957000D01*
X137798000Y-71937000D01*
X137778000Y-71937000D01*
X137778000Y-71683000D01*
X137798000Y-71683000D01*
X137798000Y-70489845D01*
X137568110Y-70368524D01*
X137158076Y-70538355D01*
X136729817Y-70928642D01*
X136662702Y-71071553D01*
X136435054Y-70730853D01*
X135953285Y-70408946D01*
X135385000Y-70295907D01*
X134816715Y-70408946D01*
X134334946Y-70730853D01*
X134115000Y-71060026D01*
X133895054Y-70730853D01*
X133413285Y-70408946D01*
X132845000Y-70295907D01*
X132276715Y-70408946D01*
X131794946Y-70730853D01*
X131575000Y-71060026D01*
X131355054Y-70730853D01*
X130873285Y-70408946D01*
X130305000Y-70295907D01*
X129736715Y-70408946D01*
X129254946Y-70730853D01*
X129035000Y-71060026D01*
X128815054Y-70730853D01*
X128333285Y-70408946D01*
X127765000Y-70295907D01*
X127196715Y-70408946D01*
X126714946Y-70730853D01*
X126487298Y-71071553D01*
X126420183Y-70928642D01*
X125991924Y-70538355D01*
X125581890Y-70368524D01*
X125352000Y-70489845D01*
X125352000Y-71683000D01*
X125372000Y-71683000D01*
X125372000Y-71937000D01*
X125352000Y-71937000D01*
X125352000Y-71957000D01*
X125098000Y-71957000D01*
X125098000Y-71937000D01*
X125078000Y-71937000D01*
X125078000Y-71683000D01*
X125098000Y-71683000D01*
X125098000Y-70489845D01*
X124868110Y-70368524D01*
X124458076Y-70538355D01*
X124029817Y-70928642D01*
X123962702Y-71071553D01*
X123735054Y-70730853D01*
X123253285Y-70408946D01*
X122685000Y-70295907D01*
X122116715Y-70408946D01*
X121634946Y-70730853D01*
X121415000Y-71060026D01*
X121195054Y-70730853D01*
X120713285Y-70408946D01*
X120145000Y-70295907D01*
X119576715Y-70408946D01*
X119094946Y-70730853D01*
X118867298Y-71071553D01*
X118800183Y-70928642D01*
X118371924Y-70538355D01*
X117961890Y-70368524D01*
X117732000Y-70489845D01*
X117732000Y-71683000D01*
X117752000Y-71683000D01*
X117752000Y-71937000D01*
X117732000Y-71937000D01*
X117732000Y-71957000D01*
X117478000Y-71957000D01*
X117478000Y-71937000D01*
X117458000Y-71937000D01*
X117458000Y-71683000D01*
X117478000Y-71683000D01*
X117478000Y-70489845D01*
X117248110Y-70368524D01*
X116838076Y-70538355D01*
X116409817Y-70928642D01*
X116342702Y-71071553D01*
X116115054Y-70730853D01*
X115633285Y-70408946D01*
X115065000Y-70295907D01*
X114496715Y-70408946D01*
X114014946Y-70730853D01*
X113795000Y-71060026D01*
X113575054Y-70730853D01*
X113093285Y-70408946D01*
X112525000Y-70295907D01*
X111956715Y-70408946D01*
X111474946Y-70730853D01*
X111255000Y-71060026D01*
X111035054Y-70730853D01*
X110553285Y-70408946D01*
X109985000Y-70295907D01*
X109416715Y-70408946D01*
X108934946Y-70730853D01*
X108707298Y-71071553D01*
X108640183Y-70928642D01*
X108211924Y-70538355D01*
X107801890Y-70368524D01*
X107572000Y-70489845D01*
X107572000Y-71683000D01*
X107592000Y-71683000D01*
X107592000Y-71937000D01*
X107572000Y-71937000D01*
X107572000Y-71957000D01*
X107318000Y-71957000D01*
X107318000Y-71937000D01*
X107298000Y-71937000D01*
X107298000Y-71683000D01*
X107318000Y-71683000D01*
X107318000Y-70489845D01*
X107088110Y-70368524D01*
X106678076Y-70538355D01*
X106249817Y-70928642D01*
X106182702Y-71071553D01*
X105955054Y-70730853D01*
X105473285Y-70408946D01*
X104905000Y-70295907D01*
X104336715Y-70408946D01*
X103854946Y-70730853D01*
X103635000Y-71060026D01*
X103415054Y-70730853D01*
X102933285Y-70408946D01*
X102365000Y-70295907D01*
X101796715Y-70408946D01*
X101314946Y-70730853D01*
X100993039Y-71212622D01*
X100880000Y-71780907D01*
X100880000Y-71839093D01*
X100993039Y-72407378D01*
X101314946Y-72889147D01*
X101318643Y-72891617D01*
X101267235Y-72901843D01*
X101057191Y-73042191D01*
X100916843Y-73252235D01*
X100867560Y-73500000D01*
X95127000Y-73500000D01*
X95127000Y-63285750D01*
X99565000Y-63285750D01*
X99565000Y-64026309D01*
X99661673Y-64259698D01*
X99840301Y-64438327D01*
X100073690Y-64535000D01*
X101714250Y-64535000D01*
X101873000Y-64376250D01*
X101873000Y-63127000D01*
X102127000Y-63127000D01*
X102127000Y-64376250D01*
X102285750Y-64535000D01*
X103926310Y-64535000D01*
X104159699Y-64438327D01*
X104338327Y-64259698D01*
X104435000Y-64026309D01*
X104435000Y-63285750D01*
X104276250Y-63127000D01*
X102127000Y-63127000D01*
X101873000Y-63127000D01*
X99723750Y-63127000D01*
X99565000Y-63285750D01*
X95127000Y-63285750D01*
X95127000Y-58052606D01*
X96052606Y-57127000D01*
X100629390Y-57127000D01*
X100308332Y-57448058D01*
M02*
