G04 #@! TF.GenerationSoftware,KiCad,Pcbnew,(2017-02-06 revision 13395d34d)-master*
G04 #@! TF.CreationDate,2017-03-09T15:05:37-03:00*
G04 #@! TF.ProjectId,beast-phat,62656173742D706861742E6B69636164,rev?*
G04 #@! TF.FileFunction,Soldermask,Bot*
G04 #@! TF.FilePolarity,Negative*
%FSLAX46Y46*%
G04 Gerber Fmt 4.6, Leading zero omitted, Abs format (unit mm)*
G04 Created by KiCad (PCBNEW (2017-02-06 revision 13395d34d)-master) date Thu Mar  9 15:05:37 2017*
%MOMM*%
%LPD*%
G01*
G04 APERTURE LIST*
%ADD10C,0.100000*%
%ADD11R,4.000000X2.200000*%
%ADD12O,4.000000X2.200000*%
%ADD13O,2.200000X3.400000*%
%ADD14O,2.100000X2.100000*%
%ADD15R,2.100000X2.100000*%
G04 APERTURE END LIST*
D10*
D11*
X102000000Y-63000000D03*
D12*
X102000000Y-59190000D03*
X151000000Y-62810000D03*
D11*
X151000000Y-59000000D03*
D13*
X131700000Y-62000000D03*
X127000000Y-62000000D03*
X122300000Y-62000000D03*
D14*
X150625000Y-71810000D03*
X150625000Y-74350000D03*
X148085000Y-71810000D03*
X148085000Y-74350000D03*
X145545000Y-71810000D03*
X145545000Y-74350000D03*
X143005000Y-71810000D03*
X143005000Y-74350000D03*
X140465000Y-71810000D03*
X140465000Y-74350000D03*
X137925000Y-71810000D03*
X137925000Y-74350000D03*
X135385000Y-71810000D03*
X135385000Y-74350000D03*
X132845000Y-71810000D03*
X132845000Y-74350000D03*
X130305000Y-71810000D03*
X130305000Y-74350000D03*
X127765000Y-71810000D03*
X127765000Y-74350000D03*
X125225000Y-71810000D03*
X125225000Y-74350000D03*
X122685000Y-71810000D03*
X122685000Y-74350000D03*
X120145000Y-71810000D03*
X120145000Y-74350000D03*
X117605000Y-71810000D03*
X117605000Y-74350000D03*
X115065000Y-71810000D03*
X115065000Y-74350000D03*
X112525000Y-71810000D03*
X112525000Y-74350000D03*
X109985000Y-71810000D03*
X109985000Y-74350000D03*
X107445000Y-71810000D03*
X107445000Y-74350000D03*
X104905000Y-71810000D03*
X104905000Y-74350000D03*
X102365000Y-71810000D03*
D15*
X102365000Y-74350000D03*
M02*
