G04 #@! TF.GenerationSoftware,KiCad,Pcbnew,(2017-02-06 revision 13395d34d)-master*
G04 #@! TF.CreationDate,2017-03-09T15:05:37-03:00*
G04 #@! TF.ProjectId,beast-phat,62656173742D706861742E6B69636164,rev?*
G04 #@! TF.FileFunction,Copper,L1,Top,Signal*
G04 #@! TF.FilePolarity,Positive*
%FSLAX46Y46*%
G04 Gerber Fmt 4.6, Leading zero omitted, Abs format (unit mm)*
G04 Created by KiCad (PCBNEW (2017-02-06 revision 13395d34d)-master) date Thu Mar  9 15:05:37 2017*
%MOMM*%
%LPD*%
G01*
G04 APERTURE LIST*
%ADD10C,0.100000*%
%ADD11R,0.750000X0.800000*%
%ADD12R,0.500000X0.600000*%
%ADD13R,1.250000X1.000000*%
%ADD14R,0.800000X0.800000*%
%ADD15R,2.500000X3.300000*%
%ADD16R,6.000000X2.700000*%
%ADD17R,3.600000X1.800000*%
%ADD18O,3.600000X1.800000*%
%ADD19O,1.800000X3.000000*%
%ADD20O,1.700000X1.700000*%
%ADD21R,1.700000X1.700000*%
%ADD22R,0.400000X0.600000*%
%ADD23R,0.900000X0.500000*%
%ADD24R,1.800000X0.600000*%
%ADD25R,2.510000X3.200000*%
%ADD26C,0.800000*%
%ADD27C,0.700000*%
%ADD28C,1.000000*%
%ADD29C,2.000000*%
%ADD30C,3.600000*%
G04 APERTURE END LIST*
D10*
D11*
X113700000Y-87150000D03*
X113700000Y-85650000D03*
D12*
X124500000Y-90250000D03*
X124500000Y-89150000D03*
D13*
X117200000Y-86100000D03*
X117200000Y-84100000D03*
X130800000Y-89100000D03*
X130800000Y-91100000D03*
X116600000Y-80900000D03*
X116600000Y-78900000D03*
D14*
X141200000Y-62000000D03*
X141200000Y-63600000D03*
X110600000Y-63800000D03*
X110600000Y-65400000D03*
D15*
X120100000Y-83500000D03*
X126900000Y-83500000D03*
D16*
X132100000Y-83600000D03*
X132100000Y-78600000D03*
D17*
X102000000Y-63000000D03*
D18*
X102000000Y-59190000D03*
X151000000Y-62810000D03*
D17*
X151000000Y-59000000D03*
D19*
X131700000Y-62000000D03*
X127000000Y-62000000D03*
X122300000Y-62000000D03*
D20*
X150625000Y-71810000D03*
X150625000Y-74350000D03*
X148085000Y-71810000D03*
X148085000Y-74350000D03*
X145545000Y-71810000D03*
X145545000Y-74350000D03*
X143005000Y-71810000D03*
X143005000Y-74350000D03*
X140465000Y-71810000D03*
X140465000Y-74350000D03*
X137925000Y-71810000D03*
X137925000Y-74350000D03*
X135385000Y-71810000D03*
X135385000Y-74350000D03*
X132845000Y-71810000D03*
X132845000Y-74350000D03*
X130305000Y-71810000D03*
X130305000Y-74350000D03*
X127765000Y-71810000D03*
X127765000Y-74350000D03*
X125225000Y-71810000D03*
X125225000Y-74350000D03*
X122685000Y-71810000D03*
X122685000Y-74350000D03*
X120145000Y-71810000D03*
X120145000Y-74350000D03*
X117605000Y-71810000D03*
X117605000Y-74350000D03*
X115065000Y-71810000D03*
X115065000Y-74350000D03*
X112525000Y-71810000D03*
X112525000Y-74350000D03*
X109985000Y-71810000D03*
X109985000Y-74350000D03*
X107445000Y-71810000D03*
X107445000Y-74350000D03*
X104905000Y-71810000D03*
X104905000Y-74350000D03*
X102365000Y-71810000D03*
D21*
X102365000Y-74350000D03*
D22*
X146050000Y-62900000D03*
X145150000Y-62900000D03*
X107150000Y-63100000D03*
X108050000Y-63100000D03*
X119050000Y-92800000D03*
X118150000Y-92800000D03*
D23*
X128500000Y-89150000D03*
X128500000Y-90650000D03*
X126700000Y-89150000D03*
X126700000Y-90650000D03*
D24*
X117415000Y-89025000D03*
X122615000Y-89025000D03*
X117415000Y-87755000D03*
X117415000Y-90295000D03*
X117415000Y-91565000D03*
X122615000Y-87755000D03*
X122615000Y-90295000D03*
X122615000Y-91565000D03*
D25*
X120015000Y-89660000D03*
D26*
X120015000Y-89660000D03*
X119300000Y-88600000D03*
X120700000Y-88600000D03*
X119300000Y-90600000D03*
X120700000Y-90600000D03*
X124300000Y-84100000D03*
X118200000Y-84100000D03*
D27*
X110600000Y-67800000D02*
X110600000Y-65400000D01*
D28*
X112000000Y-67800000D02*
X118900000Y-67800000D01*
X113600000Y-89025000D02*
X113600000Y-87250000D01*
X113600000Y-87250000D02*
X113700000Y-87150000D01*
X117415000Y-89025000D02*
X117415000Y-90295000D01*
X117415000Y-89025000D02*
X113600000Y-89025000D01*
X113600000Y-89025000D02*
X103625000Y-89025000D01*
X122300000Y-64400000D02*
X122300000Y-62000000D01*
X118900000Y-67800000D02*
X122300000Y-64400000D01*
X100200000Y-67800000D02*
X110600000Y-67800000D01*
X110600000Y-67800000D02*
X112000000Y-67800000D01*
X97000000Y-71000000D02*
X100200000Y-67800000D01*
X97000000Y-82400000D02*
X97000000Y-71000000D01*
X103625000Y-89025000D02*
X97000000Y-82400000D01*
D27*
X146050000Y-62900000D02*
X150910000Y-62900000D01*
X150910000Y-62900000D02*
X151000000Y-62810000D01*
X107150000Y-63100000D02*
X102100000Y-63100000D01*
X102100000Y-63100000D02*
X102000000Y-63000000D01*
X119050000Y-92800000D02*
X119400000Y-92800000D01*
X120015000Y-92185000D02*
X120015000Y-89660000D01*
X119400000Y-92800000D02*
X120015000Y-92185000D01*
X122615000Y-89025000D02*
X120650000Y-89025000D01*
D28*
X116600000Y-80900000D02*
X115400000Y-80900000D01*
X113700000Y-82600000D02*
X113700000Y-85650000D01*
X115400000Y-80900000D02*
X113700000Y-82600000D01*
D29*
X118600000Y-80900000D02*
X116600000Y-80900000D01*
X120100000Y-82400000D02*
X118600000Y-80900000D01*
X120100000Y-83500000D02*
X120100000Y-82400000D01*
X120015000Y-89660000D02*
X120015000Y-83585000D01*
X120015000Y-83585000D02*
X120100000Y-83500000D01*
D27*
X124500000Y-89150000D02*
X126700000Y-89150000D01*
X122615000Y-89025000D02*
X124375000Y-89025000D01*
X124375000Y-89025000D02*
X124500000Y-89150000D01*
X122615000Y-90295000D02*
X124455000Y-90295000D01*
X124455000Y-90295000D02*
X124500000Y-90250000D01*
X117200000Y-86100000D02*
X117200000Y-87540000D01*
X117200000Y-87540000D02*
X117415000Y-87755000D01*
X117200000Y-84100000D02*
X118200000Y-84100000D01*
X124900000Y-83500000D02*
X126900000Y-83500000D01*
X124300000Y-84100000D02*
X124900000Y-83500000D01*
D28*
X126900000Y-83500000D02*
X132000000Y-83500000D01*
X132000000Y-83500000D02*
X132100000Y-83600000D01*
X122615000Y-87755000D02*
X122645000Y-87755000D01*
X122645000Y-87755000D02*
X126900000Y-83500000D01*
X116600000Y-78900000D02*
X131800000Y-78900000D01*
X131800000Y-78900000D02*
X132100000Y-78600000D01*
X102365000Y-71810000D02*
X100790000Y-71810000D01*
X101800000Y-78900000D02*
X116600000Y-78900000D01*
X99600000Y-76700000D02*
X101800000Y-78900000D01*
X99600000Y-73000000D02*
X99600000Y-76700000D01*
X100790000Y-71810000D02*
X99600000Y-73000000D01*
D27*
X130800000Y-89100000D02*
X133200000Y-89100000D01*
X136600000Y-81000000D02*
X134200000Y-78600000D01*
X136600000Y-85700000D02*
X136600000Y-81000000D01*
X133200000Y-89100000D02*
X136600000Y-85700000D01*
X134200000Y-78600000D02*
X132100000Y-78600000D01*
X128500000Y-89150000D02*
X130750000Y-89150000D01*
X130750000Y-89150000D02*
X130800000Y-89100000D01*
D28*
X104905000Y-71810000D02*
X102365000Y-71810000D01*
X102365000Y-71810000D02*
X102355000Y-71800000D01*
D27*
X102365000Y-71810000D02*
X102355000Y-71800000D01*
X128500000Y-90650000D02*
X130350000Y-90650000D01*
X130350000Y-90650000D02*
X130800000Y-91100000D01*
X126700000Y-90650000D02*
X128500000Y-90650000D01*
X126700000Y-90650000D02*
X126700000Y-91000000D01*
X126135000Y-91565000D02*
X122615000Y-91565000D01*
X126700000Y-91000000D02*
X126135000Y-91565000D01*
X141200000Y-59000000D02*
X141200000Y-62000000D01*
D30*
X151000000Y-59000000D02*
X141200000Y-59000000D01*
X141200000Y-59000000D02*
X134700000Y-59000000D01*
X134700000Y-59000000D02*
X131700000Y-62000000D01*
X131700000Y-62000000D02*
X131700000Y-60300000D01*
X103090000Y-58100000D02*
X102000000Y-59190000D01*
X129500000Y-58100000D02*
X103090000Y-58100000D01*
X131700000Y-60300000D02*
X129500000Y-58100000D01*
D27*
X141200000Y-63600000D02*
X144450000Y-63600000D01*
X144450000Y-63600000D02*
X145150000Y-62900000D01*
X108050000Y-63100000D02*
X109900000Y-63100000D01*
X109900000Y-63100000D02*
X110600000Y-63800000D01*
X118150000Y-92800000D02*
X117700000Y-92800000D01*
X117415000Y-92515000D02*
X117415000Y-91565000D01*
X117700000Y-92800000D02*
X117415000Y-92515000D01*
M02*
